<?xml version="1.0" standalone="no"?>
<!DOCTYPE svg PUBLIC "-//W3C//DTD SVG 20010904//EN"
 "http://www.w3.org/TR/2001/REC-SVG-20010904/DTD/svg10.dtd">
<svg version="1.0" xmlns="http://www.w3.org/2000/svg"
 width="700.000000pt" height="700.000000pt" viewBox="0 0 700.000000 700.000000"
 preserveAspectRatio="xMidYMid meet">
<metadata>
Created by potrace 1.14, written by Peter Selinger 2001-2017
</metadata>
<g transform="translate(0.000000,700.000000) scale(0.100000,-0.100000)"
fill="#000000" stroke="none">
<path d="M3084 6966 l-34 -34 0 -3426 c0 -2540 3 -3432 11 -3450 26 -56 30
-56 606 -56 402 0 534 3 553 13 58 29 56 -18 55 1085 0 557 3 1011 7 1010 3
-2 28 -23 55 -48 26 -25 97 -90 158 -145 60 -55 128 -118 151 -140 23 -22 82
-76 130 -120 48 -44 104 -96 125 -115 21 -19 68 -63 106 -97 37 -33 89 -81
114 -105 25 -23 73 -67 105 -97 32 -29 104 -95 159 -146 55 -51 114 -106 131
-121 55 -51 208 -191 254 -233 73 -67 129 -65 194 6 19 21 51 56 73 79 21 22
74 80 118 128 44 48 98 107 120 130 22 24 83 90 135 147 52 57 109 118 125
135 107 113 125 139 125 182 0 28 -11 44 -68 100 -56 56 -184 175 -301 281
-14 13 -73 67 -131 121 -58 53 -128 118 -156 143 -27 26 -68 63 -91 84 -22 21
-85 79 -139 128 -54 50 -105 97 -114 105 -14 13 -162 149 -294 270 -27 25 -66
61 -86 80 -20 19 -72 67 -116 107 -43 39 -97 89 -120 110 -22 21 -85 79 -139
128 -54 50 -117 108 -141 130 -23 22 -76 71 -118 109 l-76 69 65 61 c35 34
100 93 142 133 43 39 98 90 123 113 25 23 84 78 133 122 48 45 96 89 108 99
30 26 237 218 282 261 21 21 40 38 42 38 2 0 24 19 48 43 24 23 81 76 127 117
45 41 96 89 114 105 17 17 81 75 141 131 61 55 124 113 140 129 17 15 70 64
119 109 48 44 100 92 115 106 15 14 69 63 120 110 257 235 264 242 267 291 2
37 -3 51 -27 79 -43 49 -168 185 -214 234 -36 37 -85 90 -286 310 -30 32 -70
76 -89 96 -19 21 -52 56 -73 79 -68 74 -122 77 -193 13 -50 -44 -211 -193
-264 -242 -35 -33 -191 -177 -249 -229 -14 -13 -73 -67 -130 -120 -57 -53
-116 -107 -131 -121 -31 -29 -187 -172 -298 -275 -115 -106 -123 -114 -223
-205 -51 -47 -111 -102 -132 -122 -21 -21 -43 -38 -48 -38 -5 0 -9 -5 -9 -12
0 -6 -3 -8 -7 -4 -4 4 -7 456 -8 1004 0 784 -3 1002 -13 1019 -30 53 -29 53
-608 53 l-536 0 -34 -34z"/>
<path d="M1110 6316 c-31 -13 -134 -119 -326 -335 -22 -24 -59 -65 -84 -91
-25 -26 -82 -88 -127 -137 -45 -50 -103 -112 -129 -139 -77 -82 -94 -108 -94
-148 0 -40 25 -68 220 -246 45 -41 102 -93 125 -115 24 -22 63 -58 87 -80 24
-22 93 -85 153 -141 61 -56 132 -121 159 -145 27 -24 68 -62 91 -84 48 -46
239 -223 265 -245 24 -21 211 -193 284 -262 122 -115 153 -112 277 24 46 50
102 110 124 133 22 23 78 84 125 135 47 51 96 105 110 120 14 15 63 69 110
120 47 51 92 100 102 109 51 50 78 95 78 131 0 43 -25 71 -195 225 -49 44
-107 97 -128 117 -22 21 -81 75 -131 120 -49 46 -119 110 -153 142 -35 32 -73
68 -86 78 -12 11 -66 61 -121 111 -54 51 -111 103 -126 117 -15 14 -74 68
-131 122 -57 53 -122 112 -144 131 -22 19 -65 59 -97 89 -98 93 -133 124 -146
132 -29 17 -68 23 -92 12z"/>
<path d="M1819 2922 c-14 -6 -72 -57 -219 -192 -15 -14 -67 -61 -115 -105 -48
-44 -111 -102 -140 -130 -29 -27 -87 -81 -130 -120 -42 -38 -94 -86 -114 -105
-21 -19 -79 -73 -130 -120 -52 -47 -108 -98 -126 -115 -17 -16 -71 -66 -119
-110 -48 -44 -102 -93 -120 -110 -17 -16 -77 -72 -132 -123 -108 -99 -130
-135 -110 -184 11 -26 66 -92 162 -193 26 -27 68 -73 93 -100 25 -28 91 -99
146 -159 118 -128 123 -134 239 -260 93 -100 127 -121 176 -104 31 10 83 55
300 258 20 19 74 69 119 110 46 41 104 95 130 120 27 25 92 86 146 135 54 50
116 107 138 127 22 20 71 66 111 101 39 36 87 80 107 98 47 44 240 222 304
282 28 25 59 54 71 64 30 26 44 57 44 97 0 36 -10 51 -110 157 -19 21 -66 72
-105 114 -73 80 -87 95 -195 212 -36 38 -108 116 -160 173 -138 150 -153 165
-177 178 -24 13 -59 14 -84 4z"/>
</g>
</svg>
